# xmcd
#
# Track frame offsets:
#	182
#	19817
#	39652
#	53402
#	74887
#	95045
#	114227
#	130552
#	147620
#	163800
#
# Disc length: 2424 seconds
#
# Revision: 1
# Processed by: cddbd v1.5.2PL0 Copyright (c) Steve Scherf et al.
# Submitted via: EZCDAudioConverter 6.0.3.1
#
DISCID=8f09760a
DTITLE=Alabama - Roll On (Live)
DYEAR=1984
DGENRE=Country
TTITLE0=Roll On (Eighteen Wheeler)
TTITLE1=Carolina Mountain Dewe
TTITLE2=The End Of The Lyin'
TTITLE3=I'm Not That Way Anymore
TTITLE4=If You're Gonna Play In Texas (You Gotta Have A Fiddle In The Band)
TTITLE5=(There's A) Fire In The Night
TTITLE6=When We Make Love
TTITLE7=Country Side Of Life
TTITLE8=The Boy
TTITLE9=Food On The Table
EXTD=
EXTT0=
EXTT1=
EXTT2=
EXTT3=
EXTT4=
EXTT5=
EXTT6=
EXTT7=
EXTT8=
EXTT9=
PLAYORDER=
